<?xml version="1.0" encoding="utf-8" standalone="no"?>
<!DOCTYPE svg PUBLIC "-//W3C//DTD SVG 1.1//EN"
  "http://www.w3.org/Graphics/SVG/1.1/DTD/svg11.dtd">
<!-- Created with matplotlib (http://matplotlib.org/) -->
<svg height="468pt" version="1.1" viewBox="0 0 648 468" width="648pt" xmlns="http://www.w3.org/2000/svg" xmlns:xlink="http://www.w3.org/1999/xlink">
 <defs>
  <style type="text/css">
*{stroke-linecap:butt;stroke-linejoin:round;stroke-miterlimit:100000;}
  </style>
 </defs>
 <g id="figure_1">
  <g id="patch_1">
   <path d="M 0 468 
L 648 468 
L 648 0 
L 0 0 
z
" style="fill:#ffffff;"/>
  </g>
  <g id="axes_1">
   <g id="patch_2">
    <path d="M 81 409.5 
L 583.2 409.5 
L 583.2 46.8 
L 81 46.8 
z
" style="fill:#ffffff;"/>
   </g>
   <g id="LineCollection_1">
    <path clip-path="url(#p9f601161e9)" d="M 81 409.5 
L 81 409.5 
" style="fill:none;stroke:#0000ff;"/>
    <path clip-path="url(#p9f601161e9)" style="fill:none;stroke:#0000ff;"/>
    <path clip-path="url(#p9f601161e9)" d="M 181.44 155.845998 
L 181.44 100.154705 
" style="fill:none;stroke:#0000ff;"/>
    <path clip-path="url(#p9f601161e9)" style="fill:none;stroke:#0000ff;"/>
    <path clip-path="url(#p9f601161e9)" style="fill:none;stroke:#0000ff;"/>
    <path clip-path="url(#p9f601161e9)" style="fill:none;stroke:#0000ff;"/>
    <path clip-path="url(#p9f601161e9)" style="fill:none;stroke:#0000ff;"/>
    <path clip-path="url(#p9f601161e9)" style="fill:none;stroke:#0000ff;"/>
    <path clip-path="url(#p9f601161e9)" style="fill:none;stroke:#0000ff;"/>
    <path clip-path="url(#p9f601161e9)" style="fill:none;stroke:#0000ff;"/>
   </g>
   <g id="LineCollection_2">
    <path clip-path="url(#p9f601161e9)" d="M 81 409.5 
L 81 409.5 
" style="fill:none;stroke:#008000;"/>
    <path clip-path="url(#p9f601161e9)" style="fill:none;stroke:#008000;"/>
    <path clip-path="url(#p9f601161e9)" d="M 181.44 77.862032 
L 181.44 67.020903 
" style="fill:none;stroke:#008000;"/>
    <path clip-path="url(#p9f601161e9)" style="fill:none;stroke:#008000;"/>
    <path clip-path="url(#p9f601161e9)" style="fill:none;stroke:#008000;"/>
    <path clip-path="url(#p9f601161e9)" style="fill:none;stroke:#008000;"/>
    <path clip-path="url(#p9f601161e9)" style="fill:none;stroke:#008000;"/>
    <path clip-path="url(#p9f601161e9)" style="fill:none;stroke:#008000;"/>
    <path clip-path="url(#p9f601161e9)" style="fill:none;stroke:#008000;"/>
    <path clip-path="url(#p9f601161e9)" style="fill:none;stroke:#008000;"/>
   </g>
   <g id="LineCollection_3">
    <path clip-path="url(#p9f601161e9)" d="M 81 409.5 
L 81 409.5 
" style="fill:none;stroke:#ff0000;"/>
    <path clip-path="url(#p9f601161e9)" style="fill:none;stroke:#ff0000;"/>
    <path clip-path="url(#p9f601161e9)" d="M 181.44 186.760546 
L 181.44 138.149601 
" style="fill:none;stroke:#ff0000;"/>
    <path clip-path="url(#p9f601161e9)" style="fill:none;stroke:#ff0000;"/>
    <path clip-path="url(#p9f601161e9)" style="fill:none;stroke:#ff0000;"/>
    <path clip-path="url(#p9f601161e9)" style="fill:none;stroke:#ff0000;"/>
    <path clip-path="url(#p9f601161e9)" style="fill:none;stroke:#ff0000;"/>
    <path clip-path="url(#p9f601161e9)" style="fill:none;stroke:#ff0000;"/>
    <path clip-path="url(#p9f601161e9)" style="fill:none;stroke:#ff0000;"/>
    <path clip-path="url(#p9f601161e9)" style="fill:none;stroke:#ff0000;"/>
   </g>
   <g id="LineCollection_4">
    <path clip-path="url(#p9f601161e9)" d="M 81 409.5 
L 81 409.5 
" style="fill:none;stroke:#00bfbf;"/>
    <path clip-path="url(#p9f601161e9)" style="fill:none;stroke:#00bfbf;"/>
    <path clip-path="url(#p9f601161e9)" d="M 181.44 152.449525 
L 181.44 112.117299 
" style="fill:none;stroke:#00bfbf;"/>
    <path clip-path="url(#p9f601161e9)" d="M 231.66 109.465938 
L 231.66 98.445012 
" style="fill:none;stroke:#00bfbf;"/>
    <path clip-path="url(#p9f601161e9)" d="M 281.88 92.688611 
L 281.88 85.854307 
" style="fill:none;stroke:#00bfbf;"/>
    <path clip-path="url(#p9f601161e9)" style="fill:none;stroke:#00bfbf;"/>
    <path clip-path="url(#p9f601161e9)" style="fill:none;stroke:#00bfbf;"/>
    <path clip-path="url(#p9f601161e9)" style="fill:none;stroke:#00bfbf;"/>
    <path clip-path="url(#p9f601161e9)" style="fill:none;stroke:#00bfbf;"/>
    <path clip-path="url(#p9f601161e9)" style="fill:none;stroke:#00bfbf;"/>
   </g>
   <g id="LineCollection_5">
    <path clip-path="url(#p9f601161e9)" d="M 81 409.5 
L 81 409.5 
" style="fill:none;stroke:#bf00bf;"/>
    <path clip-path="url(#p9f601161e9)" style="fill:none;stroke:#bf00bf;"/>
    <path clip-path="url(#p9f601161e9)" d="M 181.44 150.941219 
L 181.44 106.16892 
" style="fill:none;stroke:#bf00bf;"/>
    <path clip-path="url(#p9f601161e9)" d="M 231.66 103.672028 
L 231.66 92.881433 
" style="fill:none;stroke:#bf00bf;"/>
    <path clip-path="url(#p9f601161e9)" d="M 281.88 84.904038 
L 281.88 79.76027 
" style="fill:none;stroke:#bf00bf;"/>
    <path clip-path="url(#p9f601161e9)" d="M 332.1 78.792131 
L 332.1 74.909392 
" style="fill:none;stroke:#bf00bf;"/>
    <path clip-path="url(#p9f601161e9)" d="M 382.32 72.968186 
L 382.32 70.680858 
" style="fill:none;stroke:#bf00bf;"/>
    <path clip-path="url(#p9f601161e9)" d="M 432.54 69.805618 
L 432.54 68.228688 
" style="fill:none;stroke:#bf00bf;"/>
    <path clip-path="url(#p9f601161e9)" d="M 482.76 68.319027 
L 482.76 66.952358 
" style="fill:none;stroke:#bf00bf;"/>
    <path clip-path="url(#p9f601161e9)" d="M 532.98 66.626509 
L 532.98 65.729052 
" style="fill:none;stroke:#bf00bf;"/>
   </g>
   <g id="LineCollection_6">
    <path clip-path="url(#p9f601161e9)" d="M 81 409.5 
L 81 409.5 
" style="fill:none;stroke:#bfbf00;"/>
    <path clip-path="url(#p9f601161e9)" style="fill:none;stroke:#bfbf00;"/>
    <path clip-path="url(#p9f601161e9)" style="fill:none;stroke:#bfbf00;"/>
    <path clip-path="url(#p9f601161e9)" style="fill:none;stroke:#bfbf00;"/>
    <path clip-path="url(#p9f601161e9)" style="fill:none;stroke:#bfbf00;"/>
    <path clip-path="url(#p9f601161e9)" style="fill:none;stroke:#bfbf00;"/>
    <path clip-path="url(#p9f601161e9)" style="fill:none;stroke:#bfbf00;"/>
    <path clip-path="url(#p9f601161e9)" style="fill:none;stroke:#bfbf00;"/>
    <path clip-path="url(#p9f601161e9)" style="fill:none;stroke:#bfbf00;"/>
    <path clip-path="url(#p9f601161e9)" style="fill:none;stroke:#bfbf00;"/>
   </g>
   <g id="LineCollection_7">
    <path clip-path="url(#p9f601161e9)" d="M 81 409.5 
L 81 409.5 
" style="fill:none;stroke:#000000;"/>
    <path clip-path="url(#p9f601161e9)" style="fill:none;stroke:#000000;"/>
    <path clip-path="url(#p9f601161e9)" d="M 181.44 130.274155 
L 181.44 90.402413 
" style="fill:none;stroke:#000000;"/>
    <path clip-path="url(#p9f601161e9)" style="fill:none;stroke:#000000;"/>
    <path clip-path="url(#p9f601161e9)" style="fill:none;stroke:#000000;"/>
    <path clip-path="url(#p9f601161e9)" style="fill:none;stroke:#000000;"/>
    <path clip-path="url(#p9f601161e9)" style="fill:none;stroke:#000000;"/>
    <path clip-path="url(#p9f601161e9)" style="fill:none;stroke:#000000;"/>
    <path clip-path="url(#p9f601161e9)" style="fill:none;stroke:#000000;"/>
    <path clip-path="url(#p9f601161e9)" style="fill:none;stroke:#000000;"/>
   </g>
   <g id="line2d_1">
    <defs>
     <path d="M 3 0 
L -3 -0 
" id="mf3faed6ceb" style="stroke:#0000ff;stroke-width:0.5;"/>
    </defs>
    <g clip-path="url(#p9f601161e9)">
     <use style="fill:#0000ff;stroke:#0000ff;stroke-width:0.5;" x="81.0" xlink:href="#mf3faed6ceb" y="409.5"/>
     <use style="fill:#0000ff;stroke:#0000ff;stroke-width:0.5;" x="181.44" xlink:href="#mf3faed6ceb" y="155.845997843"/>
    </g>
   </g>
   <g id="line2d_2">
    <g clip-path="url(#p9f601161e9)">
     <use style="fill:#0000ff;stroke:#0000ff;stroke-width:0.5;" x="81.0" xlink:href="#mf3faed6ceb" y="409.5"/>
     <use style="fill:#0000ff;stroke:#0000ff;stroke-width:0.5;" x="181.44" xlink:href="#mf3faed6ceb" y="100.154705098"/>
    </g>
   </g>
   <g id="line2d_3">
    <path clip-path="url(#p9f601161e9)" d="M 81 409.5 
L 131.22 175.117571 
L 181.44 128.000351 
" style="fill:none;stroke:#0000ff;stroke-linecap:square;"/>
   </g>
   <g id="line2d_4">
    <defs>
     <path d="M 3 0 
L -3 -0 
" id="m6108d61e3f" style="stroke:#008000;stroke-width:0.5;"/>
    </defs>
    <g clip-path="url(#p9f601161e9)">
     <use style="fill:#008000;stroke:#008000;stroke-width:0.5;" x="81.0" xlink:href="#m6108d61e3f" y="409.5"/>
     <use style="fill:#008000;stroke:#008000;stroke-width:0.5;" x="181.44" xlink:href="#m6108d61e3f" y="77.862032107"/>
    </g>
   </g>
   <g id="line2d_5">
    <g clip-path="url(#p9f601161e9)">
     <use style="fill:#008000;stroke:#008000;stroke-width:0.5;" x="81.0" xlink:href="#m6108d61e3f" y="409.5"/>
     <use style="fill:#008000;stroke:#008000;stroke-width:0.5;" x="181.44" xlink:href="#m6108d61e3f" y="67.0209031869"/>
    </g>
   </g>
   <g id="line2d_6">
    <path clip-path="url(#p9f601161e9)" d="M 81 409.5 
L 131.22 85.7298 
L 181.44 72.441468 
" style="fill:none;stroke:#008000;stroke-linecap:square;"/>
   </g>
   <g id="line2d_7">
    <defs>
     <path d="M 3 0 
L -3 -0 
" id="mea23cad60c" style="stroke:#ff0000;stroke-width:0.5;"/>
    </defs>
    <g clip-path="url(#p9f601161e9)">
     <use style="fill:#ff0000;stroke:#ff0000;stroke-width:0.5;" x="81.0" xlink:href="#mea23cad60c" y="409.5"/>
     <use style="fill:#ff0000;stroke:#ff0000;stroke-width:0.5;" x="181.44" xlink:href="#mea23cad60c" y="186.760545849"/>
    </g>
   </g>
   <g id="line2d_8">
    <g clip-path="url(#p9f601161e9)">
     <use style="fill:#ff0000;stroke:#ff0000;stroke-width:0.5;" x="81.0" xlink:href="#mea23cad60c" y="409.5"/>
     <use style="fill:#ff0000;stroke:#ff0000;stroke-width:0.5;" x="181.44" xlink:href="#mea23cad60c" y="138.14960121"/>
    </g>
   </g>
   <g id="line2d_9">
    <path clip-path="url(#p9f601161e9)" d="M 81 409.5 
L 131.22 216.237794 
L 181.44 162.455074 
" style="fill:none;stroke:#ff0000;stroke-linecap:square;"/>
   </g>
   <g id="line2d_10">
    <defs>
     <path d="M 3 0 
L -3 -0 
" id="m29be89ff37" style="stroke:#00bfbf;stroke-width:0.5;"/>
    </defs>
    <g clip-path="url(#p9f601161e9)">
     <use style="fill:#00bfbf;stroke:#00bfbf;stroke-width:0.5;" x="81.0" xlink:href="#m29be89ff37" y="409.5"/>
     <use style="fill:#00bfbf;stroke:#00bfbf;stroke-width:0.5;" x="181.44" xlink:href="#m29be89ff37" y="152.449524645"/>
     <use style="fill:#00bfbf;stroke:#00bfbf;stroke-width:0.5;" x="231.66" xlink:href="#m29be89ff37" y="109.465938124"/>
     <use style="fill:#00bfbf;stroke:#00bfbf;stroke-width:0.5;" x="281.88" xlink:href="#m29be89ff37" y="92.6886110592"/>
    </g>
   </g>
   <g id="line2d_11">
    <g clip-path="url(#p9f601161e9)">
     <use style="fill:#00bfbf;stroke:#00bfbf;stroke-width:0.5;" x="81.0" xlink:href="#m29be89ff37" y="409.5"/>
     <use style="fill:#00bfbf;stroke:#00bfbf;stroke-width:0.5;" x="181.44" xlink:href="#m29be89ff37" y="112.117298884"/>
     <use style="fill:#00bfbf;stroke:#00bfbf;stroke-width:0.5;" x="231.66" xlink:href="#m29be89ff37" y="98.4450118757"/>
     <use style="fill:#00bfbf;stroke:#00bfbf;stroke-width:0.5;" x="281.88" xlink:href="#m29be89ff37" y="85.8543065881"/>
    </g>
   </g>
   <g id="line2d_12">
    <path clip-path="url(#p9f601161e9)" d="M 81 409.5 
L 131.22 191.20616 
L 181.44 132.283412 
L 231.66 103.955475 
L 281.88 89.271459 
" style="fill:none;stroke:#00bfbf;stroke-linecap:square;"/>
   </g>
   <g id="line2d_13">
    <defs>
     <path d="M 3 0 
L -3 -0 
" id="m53e81e4969" style="stroke:#bf00bf;stroke-width:0.5;"/>
    </defs>
    <g clip-path="url(#p9f601161e9)">
     <use style="fill:#bf00bf;stroke:#bf00bf;stroke-width:0.5;" x="81.0" xlink:href="#m53e81e4969" y="409.5"/>
     <use style="fill:#bf00bf;stroke:#bf00bf;stroke-width:0.5;" x="181.44" xlink:href="#m53e81e4969" y="150.941218566"/>
     <use style="fill:#bf00bf;stroke:#bf00bf;stroke-width:0.5;" x="231.66" xlink:href="#m53e81e4969" y="103.672028386"/>
     <use style="fill:#bf00bf;stroke:#bf00bf;stroke-width:0.5;" x="281.88" xlink:href="#m53e81e4969" y="84.9040384956"/>
     <use style="fill:#bf00bf;stroke:#bf00bf;stroke-width:0.5;" x="332.1" xlink:href="#m53e81e4969" y="78.7921312966"/>
     <use style="fill:#bf00bf;stroke:#bf00bf;stroke-width:0.5;" x="382.32" xlink:href="#m53e81e4969" y="72.9681859109"/>
     <use style="fill:#bf00bf;stroke:#bf00bf;stroke-width:0.5;" x="432.54" xlink:href="#m53e81e4969" y="69.8056179944"/>
     <use style="fill:#bf00bf;stroke:#bf00bf;stroke-width:0.5;" x="482.76" xlink:href="#m53e81e4969" y="68.3190270016"/>
     <use style="fill:#bf00bf;stroke:#bf00bf;stroke-width:0.5;" x="532.98" xlink:href="#m53e81e4969" y="66.6265094549"/>
    </g>
   </g>
   <g id="line2d_14">
    <g clip-path="url(#p9f601161e9)">
     <use style="fill:#bf00bf;stroke:#bf00bf;stroke-width:0.5;" x="81.0" xlink:href="#m53e81e4969" y="409.5"/>
     <use style="fill:#bf00bf;stroke:#bf00bf;stroke-width:0.5;" x="181.44" xlink:href="#m53e81e4969" y="106.168919669"/>
     <use style="fill:#bf00bf;stroke:#bf00bf;stroke-width:0.5;" x="231.66" xlink:href="#m53e81e4969" y="92.8814333787"/>
     <use style="fill:#bf00bf;stroke:#bf00bf;stroke-width:0.5;" x="281.88" xlink:href="#m53e81e4969" y="79.7602703283"/>
     <use style="fill:#bf00bf;stroke:#bf00bf;stroke-width:0.5;" x="332.1" xlink:href="#m53e81e4969" y="74.9093922324"/>
     <use style="fill:#bf00bf;stroke:#bf00bf;stroke-width:0.5;" x="382.32" xlink:href="#m53e81e4969" y="70.6808582066"/>
     <use style="fill:#bf00bf;stroke:#bf00bf;stroke-width:0.5;" x="432.54" xlink:href="#m53e81e4969" y="68.2286878881"/>
     <use style="fill:#bf00bf;stroke:#bf00bf;stroke-width:0.5;" x="482.76" xlink:href="#m53e81e4969" y="66.9523582922"/>
     <use style="fill:#bf00bf;stroke:#bf00bf;stroke-width:0.5;" x="532.98" xlink:href="#m53e81e4969" y="65.7290523096"/>
    </g>
   </g>
   <g id="line2d_15">
    <path clip-path="url(#p9f601161e9)" d="M 81 409.5 
L 131.22 197.807656 
L 181.44 128.555069 
L 231.66 98.276731 
L 281.88 82.332154 
L 332.1 76.850762 
L 382.32 71.824522 
L 432.54 69.017153 
L 482.76 67.635693 
L 532.98 66.177781 
" style="fill:none;stroke:#bf00bf;stroke-linecap:square;"/>
   </g>
   <g id="line2d_16">
    <defs>
     <path d="M 3 0 
L -3 -0 
" id="mcc233870f7" style="stroke:#bfbf00;stroke-width:0.5;"/>
    </defs>
    <g clip-path="url(#p9f601161e9)">
     <use style="fill:#bfbf00;stroke:#bfbf00;stroke-width:0.5;" x="81.0" xlink:href="#mcc233870f7" y="409.5"/>
    </g>
   </g>
   <g id="line2d_17">
    <g clip-path="url(#p9f601161e9)">
     <use style="fill:#bfbf00;stroke:#bfbf00;stroke-width:0.5;" x="81.0" xlink:href="#mcc233870f7" y="409.5"/>
    </g>
   </g>
   <g id="line2d_18">
    <path clip-path="url(#p9f601161e9)" d="M 81 409.5 
L 131.22 162.366176 
" style="fill:none;stroke:#bfbf00;stroke-linecap:square;"/>
   </g>
   <g id="line2d_19">
    <defs>
     <path d="M 3 0 
L -3 -0 
" id="m62b1f4488e" style="stroke:#000000;stroke-width:0.5;"/>
    </defs>
    <g clip-path="url(#p9f601161e9)">
     <use style="stroke:#000000;stroke-width:0.5;" x="81.0" xlink:href="#m62b1f4488e" y="409.5"/>
     <use style="stroke:#000000;stroke-width:0.5;" x="181.44" xlink:href="#m62b1f4488e" y="130.274155074"/>
    </g>
   </g>
   <g id="line2d_20">
    <g clip-path="url(#p9f601161e9)">
     <use style="stroke:#000000;stroke-width:0.5;" x="81.0" xlink:href="#m62b1f4488e" y="409.5"/>
     <use style="stroke:#000000;stroke-width:0.5;" x="181.44" xlink:href="#m62b1f4488e" y="90.4024125735"/>
    </g>
   </g>
   <g id="line2d_21">
    <path clip-path="url(#p9f601161e9)" d="M 81 409.5 
L 131.22 155.894471 
L 181.44 110.338284 
" style="fill:none;stroke:#000000;stroke-linecap:square;"/>
   </g>
   <g id="patch_3">
    <path d="M 81 46.8 
L 583.2 46.8 
" style="fill:none;stroke:#000000;stroke-linecap:square;stroke-linejoin:miter;"/>
   </g>
   <g id="patch_4">
    <path d="M 583.2 409.5 
L 583.2 46.8 
" style="fill:none;stroke:#000000;stroke-linecap:square;stroke-linejoin:miter;"/>
   </g>
   <g id="patch_5">
    <path d="M 81 409.5 
L 583.2 409.5 
" style="fill:none;stroke:#000000;stroke-linecap:square;stroke-linejoin:miter;"/>
   </g>
   <g id="patch_6">
    <path d="M 81 409.5 
L 81 46.8 
" style="fill:none;stroke:#000000;stroke-linecap:square;stroke-linejoin:miter;"/>
   </g>
   <g id="matplotlib.axis_1">
    <g id="xtick_1">
     <g id="line2d_22">
      <defs>
       <path d="M 0 0 
L 0 -4 
" id="m92e6ca13f1" style="stroke:#000000;stroke-width:0.5;"/>
      </defs>
      <g>
       <use style="stroke:#000000;stroke-width:0.5;" x="81.0" xlink:href="#m92e6ca13f1" y="409.5"/>
      </g>
     </g>
     <g id="line2d_23">
      <defs>
       <path d="M 0 0 
L 0 4 
" id="m93eb0c91f4" style="stroke:#000000;stroke-width:0.5;"/>
      </defs>
      <g>
       <use style="stroke:#000000;stroke-width:0.5;" x="81.0" xlink:href="#m93eb0c91f4" y="46.8"/>
      </g>
     </g>
     <g id="text_1">
      <!-- 0 -->
      <defs>
       <path d="M 31.78125 66.40625 
Q 24.171875 66.40625 20.328125 58.90625 
Q 16.5 51.421875 16.5 36.375 
Q 16.5 21.390625 20.328125 13.890625 
Q 24.171875 6.390625 31.78125 6.390625 
Q 39.453125 6.390625 43.28125 13.890625 
Q 47.125 21.390625 47.125 36.375 
Q 47.125 51.421875 43.28125 58.90625 
Q 39.453125 66.40625 31.78125 66.40625 
M 31.78125 74.21875 
Q 44.046875 74.21875 50.515625 64.515625 
Q 56.984375 54.828125 56.984375 36.375 
Q 56.984375 17.96875 50.515625 8.265625 
Q 44.046875 -1.421875 31.78125 -1.421875 
Q 19.53125 -1.421875 13.0625 8.265625 
Q 6.59375 17.96875 6.59375 36.375 
Q 6.59375 54.828125 13.0625 64.515625 
Q 19.53125 74.21875 31.78125 74.21875 
" id="BitstreamVeraSans-Roman-30"/>
      </defs>
      <g transform="translate(77.81875 421.0984375)scale(0.1 -0.1)">
       <use xlink:href="#BitstreamVeraSans-Roman-30"/>
      </g>
     </g>
    </g>
    <g id="xtick_2">
     <g id="line2d_24">
      <g>
       <use style="stroke:#000000;stroke-width:0.5;" x="181.44" xlink:href="#m92e6ca13f1" y="409.5"/>
      </g>
     </g>
     <g id="line2d_25">
      <g>
       <use style="stroke:#000000;stroke-width:0.5;" x="181.44" xlink:href="#m93eb0c91f4" y="46.8"/>
      </g>
     </g>
     <g id="text_2">
      <!-- 2 -->
      <defs>
       <path d="M 19.1875 8.296875 
L 53.609375 8.296875 
L 53.609375 0 
L 7.328125 0 
L 7.328125 8.296875 
Q 12.9375 14.109375 22.625 23.890625 
Q 32.328125 33.6875 34.8125 36.53125 
Q 39.546875 41.84375 41.421875 45.53125 
Q 43.3125 49.21875 43.3125 52.78125 
Q 43.3125 58.59375 39.234375 62.25 
Q 35.15625 65.921875 28.609375 65.921875 
Q 23.96875 65.921875 18.8125 64.3125 
Q 13.671875 62.703125 7.8125 59.421875 
L 7.8125 69.390625 
Q 13.765625 71.78125 18.9375 73 
Q 24.125 74.21875 28.421875 74.21875 
Q 39.75 74.21875 46.484375 68.546875 
Q 53.21875 62.890625 53.21875 53.421875 
Q 53.21875 48.921875 51.53125 44.890625 
Q 49.859375 40.875 45.40625 35.40625 
Q 44.1875 33.984375 37.640625 27.21875 
Q 31.109375 20.453125 19.1875 8.296875 
" id="BitstreamVeraSans-Roman-32"/>
      </defs>
      <g transform="translate(178.25875 421.0984375)scale(0.1 -0.1)">
       <use xlink:href="#BitstreamVeraSans-Roman-32"/>
      </g>
     </g>
    </g>
    <g id="xtick_3">
     <g id="line2d_26">
      <g>
       <use style="stroke:#000000;stroke-width:0.5;" x="281.88" xlink:href="#m92e6ca13f1" y="409.5"/>
      </g>
     </g>
     <g id="line2d_27">
      <g>
       <use style="stroke:#000000;stroke-width:0.5;" x="281.88" xlink:href="#m93eb0c91f4" y="46.8"/>
      </g>
     </g>
     <g id="text_3">
      <!-- 4 -->
      <defs>
       <path d="M 37.796875 64.3125 
L 12.890625 25.390625 
L 37.796875 25.390625 
z
M 35.203125 72.90625 
L 47.609375 72.90625 
L 47.609375 25.390625 
L 58.015625 25.390625 
L 58.015625 17.1875 
L 47.609375 17.1875 
L 47.609375 0 
L 37.796875 0 
L 37.796875 17.1875 
L 4.890625 17.1875 
L 4.890625 26.703125 
z
" id="BitstreamVeraSans-Roman-34"/>
      </defs>
      <g transform="translate(278.69875 421.0984375)scale(0.1 -0.1)">
       <use xlink:href="#BitstreamVeraSans-Roman-34"/>
      </g>
     </g>
    </g>
    <g id="xtick_4">
     <g id="line2d_28">
      <g>
       <use style="stroke:#000000;stroke-width:0.5;" x="382.32" xlink:href="#m92e6ca13f1" y="409.5"/>
      </g>
     </g>
     <g id="line2d_29">
      <g>
       <use style="stroke:#000000;stroke-width:0.5;" x="382.32" xlink:href="#m93eb0c91f4" y="46.8"/>
      </g>
     </g>
     <g id="text_4">
      <!-- 6 -->
      <defs>
       <path d="M 33.015625 40.375 
Q 26.375 40.375 22.484375 35.828125 
Q 18.609375 31.296875 18.609375 23.390625 
Q 18.609375 15.53125 22.484375 10.953125 
Q 26.375 6.390625 33.015625 6.390625 
Q 39.65625 6.390625 43.53125 10.953125 
Q 47.40625 15.53125 47.40625 23.390625 
Q 47.40625 31.296875 43.53125 35.828125 
Q 39.65625 40.375 33.015625 40.375 
M 52.59375 71.296875 
L 52.59375 62.3125 
Q 48.875 64.0625 45.09375 64.984375 
Q 41.3125 65.921875 37.59375 65.921875 
Q 27.828125 65.921875 22.671875 59.328125 
Q 17.53125 52.734375 16.796875 39.40625 
Q 19.671875 43.65625 24.015625 45.921875 
Q 28.375 48.1875 33.59375 48.1875 
Q 44.578125 48.1875 50.953125 41.515625 
Q 57.328125 34.859375 57.328125 23.390625 
Q 57.328125 12.15625 50.6875 5.359375 
Q 44.046875 -1.421875 33.015625 -1.421875 
Q 20.359375 -1.421875 13.671875 8.265625 
Q 6.984375 17.96875 6.984375 36.375 
Q 6.984375 53.65625 15.1875 63.9375 
Q 23.390625 74.21875 37.203125 74.21875 
Q 40.921875 74.21875 44.703125 73.484375 
Q 48.484375 72.75 52.59375 71.296875 
" id="BitstreamVeraSans-Roman-36"/>
      </defs>
      <g transform="translate(379.13875 421.0984375)scale(0.1 -0.1)">
       <use xlink:href="#BitstreamVeraSans-Roman-36"/>
      </g>
     </g>
    </g>
    <g id="xtick_5">
     <g id="line2d_30">
      <g>
       <use style="stroke:#000000;stroke-width:0.5;" x="482.76" xlink:href="#m92e6ca13f1" y="409.5"/>
      </g>
     </g>
     <g id="line2d_31">
      <g>
       <use style="stroke:#000000;stroke-width:0.5;" x="482.76" xlink:href="#m93eb0c91f4" y="46.8"/>
      </g>
     </g>
     <g id="text_5">
      <!-- 8 -->
      <defs>
       <path d="M 31.78125 34.625 
Q 24.75 34.625 20.71875 30.859375 
Q 16.703125 27.09375 16.703125 20.515625 
Q 16.703125 13.921875 20.71875 10.15625 
Q 24.75 6.390625 31.78125 6.390625 
Q 38.8125 6.390625 42.859375 10.171875 
Q 46.921875 13.96875 46.921875 20.515625 
Q 46.921875 27.09375 42.890625 30.859375 
Q 38.875 34.625 31.78125 34.625 
M 21.921875 38.8125 
Q 15.578125 40.375 12.03125 44.71875 
Q 8.5 49.078125 8.5 55.328125 
Q 8.5 64.0625 14.71875 69.140625 
Q 20.953125 74.21875 31.78125 74.21875 
Q 42.671875 74.21875 48.875 69.140625 
Q 55.078125 64.0625 55.078125 55.328125 
Q 55.078125 49.078125 51.53125 44.71875 
Q 48 40.375 41.703125 38.8125 
Q 48.828125 37.15625 52.796875 32.3125 
Q 56.78125 27.484375 56.78125 20.515625 
Q 56.78125 9.90625 50.3125 4.234375 
Q 43.84375 -1.421875 31.78125 -1.421875 
Q 19.734375 -1.421875 13.25 4.234375 
Q 6.78125 9.90625 6.78125 20.515625 
Q 6.78125 27.484375 10.78125 32.3125 
Q 14.796875 37.15625 21.921875 38.8125 
M 18.3125 54.390625 
Q 18.3125 48.734375 21.84375 45.5625 
Q 25.390625 42.390625 31.78125 42.390625 
Q 38.140625 42.390625 41.71875 45.5625 
Q 45.3125 48.734375 45.3125 54.390625 
Q 45.3125 60.0625 41.71875 63.234375 
Q 38.140625 66.40625 31.78125 66.40625 
Q 25.390625 66.40625 21.84375 63.234375 
Q 18.3125 60.0625 18.3125 54.390625 
" id="BitstreamVeraSans-Roman-38"/>
      </defs>
      <g transform="translate(479.57875 421.0984375)scale(0.1 -0.1)">
       <use xlink:href="#BitstreamVeraSans-Roman-38"/>
      </g>
     </g>
    </g>
    <g id="xtick_6">
     <g id="line2d_32">
      <g>
       <use style="stroke:#000000;stroke-width:0.5;" x="583.2" xlink:href="#m92e6ca13f1" y="409.5"/>
      </g>
     </g>
     <g id="line2d_33">
      <g>
       <use style="stroke:#000000;stroke-width:0.5;" x="583.2" xlink:href="#m93eb0c91f4" y="46.8"/>
      </g>
     </g>
     <g id="text_6">
      <!-- 10 -->
      <defs>
       <path d="M 12.40625 8.296875 
L 28.515625 8.296875 
L 28.515625 63.921875 
L 10.984375 60.40625 
L 10.984375 69.390625 
L 28.421875 72.90625 
L 38.28125 72.90625 
L 38.28125 8.296875 
L 54.390625 8.296875 
L 54.390625 0 
L 12.40625 0 
z
" id="BitstreamVeraSans-Roman-31"/>
      </defs>
      <g transform="translate(576.8375 421.0984375)scale(0.1 -0.1)">
       <use xlink:href="#BitstreamVeraSans-Roman-31"/>
       <use x="63.623046875" xlink:href="#BitstreamVeraSans-Roman-30"/>
      </g>
     </g>
    </g>
    <g id="text_7">
     <!-- Number of Samples -->
     <defs>
      <path id="BitstreamVeraSans-Roman-20"/>
      <path d="M 9.8125 72.90625 
L 23.09375 72.90625 
L 55.421875 11.921875 
L 55.421875 72.90625 
L 64.984375 72.90625 
L 64.984375 0 
L 51.703125 0 
L 19.390625 60.984375 
L 19.390625 0 
L 9.8125 0 
z
" id="BitstreamVeraSans-Roman-4e"/>
      <path d="M 37.109375 75.984375 
L 37.109375 68.5 
L 28.515625 68.5 
Q 23.6875 68.5 21.796875 66.546875 
Q 19.921875 64.59375 19.921875 59.515625 
L 19.921875 54.6875 
L 34.71875 54.6875 
L 34.71875 47.703125 
L 19.921875 47.703125 
L 19.921875 0 
L 10.890625 0 
L 10.890625 47.703125 
L 2.296875 47.703125 
L 2.296875 54.6875 
L 10.890625 54.6875 
L 10.890625 58.5 
Q 10.890625 67.625 15.140625 71.796875 
Q 19.390625 75.984375 28.609375 75.984375 
z
" id="BitstreamVeraSans-Roman-66"/>
      <path d="M 52 44.1875 
Q 55.375 50.25 60.0625 53.125 
Q 64.75 56 71.09375 56 
Q 79.640625 56 84.28125 50.015625 
Q 88.921875 44.046875 88.921875 33.015625 
L 88.921875 0 
L 79.890625 0 
L 79.890625 32.71875 
Q 79.890625 40.578125 77.09375 44.375 
Q 74.3125 48.1875 68.609375 48.1875 
Q 61.625 48.1875 57.5625 43.546875 
Q 53.515625 38.921875 53.515625 30.90625 
L 53.515625 0 
L 44.484375 0 
L 44.484375 32.71875 
Q 44.484375 40.625 41.703125 44.40625 
Q 38.921875 48.1875 33.109375 48.1875 
Q 26.21875 48.1875 22.15625 43.53125 
Q 18.109375 38.875 18.109375 30.90625 
L 18.109375 0 
L 9.078125 0 
L 9.078125 54.6875 
L 18.109375 54.6875 
L 18.109375 46.1875 
Q 21.1875 51.21875 25.484375 53.609375 
Q 29.78125 56 35.6875 56 
Q 41.65625 56 45.828125 52.96875 
Q 50 49.953125 52 44.1875 
" id="BitstreamVeraSans-Roman-6d"/>
      <path d="M 30.609375 48.390625 
Q 23.390625 48.390625 19.1875 42.75 
Q 14.984375 37.109375 14.984375 27.296875 
Q 14.984375 17.484375 19.15625 11.84375 
Q 23.34375 6.203125 30.609375 6.203125 
Q 37.796875 6.203125 41.984375 11.859375 
Q 46.1875 17.53125 46.1875 27.296875 
Q 46.1875 37.015625 41.984375 42.703125 
Q 37.796875 48.390625 30.609375 48.390625 
M 30.609375 56 
Q 42.328125 56 49.015625 48.375 
Q 55.71875 40.765625 55.71875 27.296875 
Q 55.71875 13.875 49.015625 6.21875 
Q 42.328125 -1.421875 30.609375 -1.421875 
Q 18.84375 -1.421875 12.171875 6.21875 
Q 5.515625 13.875 5.515625 27.296875 
Q 5.515625 40.765625 12.171875 48.375 
Q 18.84375 56 30.609375 56 
" id="BitstreamVeraSans-Roman-6f"/>
      <path d="M 9.421875 75.984375 
L 18.40625 75.984375 
L 18.40625 0 
L 9.421875 0 
z
" id="BitstreamVeraSans-Roman-6c"/>
      <path d="M 53.515625 70.515625 
L 53.515625 60.890625 
Q 47.90625 63.578125 42.921875 64.890625 
Q 37.9375 66.21875 33.296875 66.21875 
Q 25.25 66.21875 20.875 63.09375 
Q 16.5 59.96875 16.5 54.203125 
Q 16.5 49.359375 19.40625 46.890625 
Q 22.3125 44.4375 30.421875 42.921875 
L 36.375 41.703125 
Q 47.40625 39.59375 52.65625 34.296875 
Q 57.90625 29 57.90625 20.125 
Q 57.90625 9.515625 50.796875 4.046875 
Q 43.703125 -1.421875 29.984375 -1.421875 
Q 24.8125 -1.421875 18.96875 -0.25 
Q 13.140625 0.921875 6.890625 3.21875 
L 6.890625 13.375 
Q 12.890625 10.015625 18.65625 8.296875 
Q 24.421875 6.59375 29.984375 6.59375 
Q 38.421875 6.59375 43.015625 9.90625 
Q 47.609375 13.234375 47.609375 19.390625 
Q 47.609375 24.75 44.3125 27.78125 
Q 41.015625 30.8125 33.5 32.328125 
L 27.484375 33.5 
Q 16.453125 35.6875 11.515625 40.375 
Q 6.59375 45.0625 6.59375 53.421875 
Q 6.59375 63.09375 13.40625 68.65625 
Q 20.21875 74.21875 32.171875 74.21875 
Q 37.3125 74.21875 42.625 73.28125 
Q 47.953125 72.359375 53.515625 70.515625 
" id="BitstreamVeraSans-Roman-53"/>
      <path d="M 56.203125 29.59375 
L 56.203125 25.203125 
L 14.890625 25.203125 
Q 15.484375 15.921875 20.484375 11.0625 
Q 25.484375 6.203125 34.421875 6.203125 
Q 39.59375 6.203125 44.453125 7.46875 
Q 49.3125 8.734375 54.109375 11.28125 
L 54.109375 2.78125 
Q 49.265625 0.734375 44.1875 -0.34375 
Q 39.109375 -1.421875 33.890625 -1.421875 
Q 20.796875 -1.421875 13.15625 6.1875 
Q 5.515625 13.8125 5.515625 26.8125 
Q 5.515625 40.234375 12.765625 48.109375 
Q 20.015625 56 32.328125 56 
Q 43.359375 56 49.78125 48.890625 
Q 56.203125 41.796875 56.203125 29.59375 
M 47.21875 32.234375 
Q 47.125 39.59375 43.09375 43.984375 
Q 39.0625 48.390625 32.421875 48.390625 
Q 24.90625 48.390625 20.390625 44.140625 
Q 15.875 39.890625 15.1875 32.171875 
z
" id="BitstreamVeraSans-Roman-65"/>
      <path d="M 34.28125 27.484375 
Q 23.390625 27.484375 19.1875 25 
Q 14.984375 22.515625 14.984375 16.5 
Q 14.984375 11.71875 18.140625 8.90625 
Q 21.296875 6.109375 26.703125 6.109375 
Q 34.1875 6.109375 38.703125 11.40625 
Q 43.21875 16.703125 43.21875 25.484375 
L 43.21875 27.484375 
z
M 52.203125 31.203125 
L 52.203125 0 
L 43.21875 0 
L 43.21875 8.296875 
Q 40.140625 3.328125 35.546875 0.953125 
Q 30.953125 -1.421875 24.3125 -1.421875 
Q 15.921875 -1.421875 10.953125 3.296875 
Q 6 8.015625 6 15.921875 
Q 6 25.140625 12.171875 29.828125 
Q 18.359375 34.515625 30.609375 34.515625 
L 43.21875 34.515625 
L 43.21875 35.40625 
Q 43.21875 41.609375 39.140625 45 
Q 35.0625 48.390625 27.6875 48.390625 
Q 23 48.390625 18.546875 47.265625 
Q 14.109375 46.140625 10.015625 43.890625 
L 10.015625 52.203125 
Q 14.9375 54.109375 19.578125 55.046875 
Q 24.21875 56 28.609375 56 
Q 40.484375 56 46.34375 49.84375 
Q 52.203125 43.703125 52.203125 31.203125 
" id="BitstreamVeraSans-Roman-61"/>
      <path d="M 8.5 21.578125 
L 8.5 54.6875 
L 17.484375 54.6875 
L 17.484375 21.921875 
Q 17.484375 14.15625 20.5 10.265625 
Q 23.53125 6.390625 29.59375 6.390625 
Q 36.859375 6.390625 41.078125 11.03125 
Q 45.3125 15.671875 45.3125 23.6875 
L 45.3125 54.6875 
L 54.296875 54.6875 
L 54.296875 0 
L 45.3125 0 
L 45.3125 8.40625 
Q 42.046875 3.421875 37.71875 1 
Q 33.40625 -1.421875 27.6875 -1.421875 
Q 18.265625 -1.421875 13.375 4.4375 
Q 8.5 10.296875 8.5 21.578125 
" id="BitstreamVeraSans-Roman-75"/>
      <path d="M 41.109375 46.296875 
Q 39.59375 47.171875 37.8125 47.578125 
Q 36.03125 48 33.890625 48 
Q 26.265625 48 22.1875 43.046875 
Q 18.109375 38.09375 18.109375 28.8125 
L 18.109375 0 
L 9.078125 0 
L 9.078125 54.6875 
L 18.109375 54.6875 
L 18.109375 46.1875 
Q 20.953125 51.171875 25.484375 53.578125 
Q 30.03125 56 36.53125 56 
Q 37.453125 56 38.578125 55.875 
Q 39.703125 55.765625 41.0625 55.515625 
z
" id="BitstreamVeraSans-Roman-72"/>
      <path d="M 44.28125 53.078125 
L 44.28125 44.578125 
Q 40.484375 46.53125 36.375 47.5 
Q 32.28125 48.484375 27.875 48.484375 
Q 21.1875 48.484375 17.84375 46.4375 
Q 14.5 44.390625 14.5 40.28125 
Q 14.5 37.15625 16.890625 35.375 
Q 19.28125 33.59375 26.515625 31.984375 
L 29.59375 31.296875 
Q 39.15625 29.25 43.1875 25.515625 
Q 47.21875 21.78125 47.21875 15.09375 
Q 47.21875 7.46875 41.1875 3.015625 
Q 35.15625 -1.421875 24.609375 -1.421875 
Q 20.21875 -1.421875 15.453125 -0.5625 
Q 10.6875 0.296875 5.421875 2 
L 5.421875 11.28125 
Q 10.40625 8.6875 15.234375 7.390625 
Q 20.0625 6.109375 24.8125 6.109375 
Q 31.15625 6.109375 34.5625 8.28125 
Q 37.984375 10.453125 37.984375 14.40625 
Q 37.984375 18.0625 35.515625 20.015625 
Q 33.0625 21.96875 24.703125 23.78125 
L 21.578125 24.515625 
Q 13.234375 26.265625 9.515625 29.90625 
Q 5.8125 33.546875 5.8125 39.890625 
Q 5.8125 47.609375 11.28125 51.796875 
Q 16.75 56 26.8125 56 
Q 31.78125 56 36.171875 55.265625 
Q 40.578125 54.546875 44.28125 53.078125 
" id="BitstreamVeraSans-Roman-73"/>
      <path d="M 18.109375 8.203125 
L 18.109375 -20.796875 
L 9.078125 -20.796875 
L 9.078125 54.6875 
L 18.109375 54.6875 
L 18.109375 46.390625 
Q 20.953125 51.265625 25.265625 53.625 
Q 29.59375 56 35.59375 56 
Q 45.5625 56 51.78125 48.09375 
Q 58.015625 40.1875 58.015625 27.296875 
Q 58.015625 14.40625 51.78125 6.484375 
Q 45.5625 -1.421875 35.59375 -1.421875 
Q 29.59375 -1.421875 25.265625 0.953125 
Q 20.953125 3.328125 18.109375 8.203125 
M 48.6875 27.296875 
Q 48.6875 37.203125 44.609375 42.84375 
Q 40.53125 48.484375 33.40625 48.484375 
Q 26.265625 48.484375 22.1875 42.84375 
Q 18.109375 37.203125 18.109375 27.296875 
Q 18.109375 17.390625 22.1875 11.75 
Q 26.265625 6.109375 33.40625 6.109375 
Q 40.53125 6.109375 44.609375 11.75 
Q 48.6875 17.390625 48.6875 27.296875 
" id="BitstreamVeraSans-Roman-70"/>
      <path d="M 48.6875 27.296875 
Q 48.6875 37.203125 44.609375 42.84375 
Q 40.53125 48.484375 33.40625 48.484375 
Q 26.265625 48.484375 22.1875 42.84375 
Q 18.109375 37.203125 18.109375 27.296875 
Q 18.109375 17.390625 22.1875 11.75 
Q 26.265625 6.109375 33.40625 6.109375 
Q 40.53125 6.109375 44.609375 11.75 
Q 48.6875 17.390625 48.6875 27.296875 
M 18.109375 46.390625 
Q 20.953125 51.265625 25.265625 53.625 
Q 29.59375 56 35.59375 56 
Q 45.5625 56 51.78125 48.09375 
Q 58.015625 40.1875 58.015625 27.296875 
Q 58.015625 14.40625 51.78125 6.484375 
Q 45.5625 -1.421875 35.59375 -1.421875 
Q 29.59375 -1.421875 25.265625 0.953125 
Q 20.953125 3.328125 18.109375 8.203125 
L 18.109375 0 
L 9.078125 0 
L 9.078125 75.984375 
L 18.109375 75.984375 
z
" id="BitstreamVeraSans-Roman-62"/>
     </defs>
     <g transform="translate(282.66328125 435.7765625)scale(0.1 -0.1)">
      <use xlink:href="#BitstreamVeraSans-Roman-4e"/>
      <use x="74.8046875" xlink:href="#BitstreamVeraSans-Roman-75"/>
      <use x="138.18359375" xlink:href="#BitstreamVeraSans-Roman-6d"/>
      <use x="235.595703125" xlink:href="#BitstreamVeraSans-Roman-62"/>
      <use x="299.072265625" xlink:href="#BitstreamVeraSans-Roman-65"/>
      <use x="360.595703125" xlink:href="#BitstreamVeraSans-Roman-72"/>
      <use x="401.708984375" xlink:href="#BitstreamVeraSans-Roman-20"/>
      <use x="433.49609375" xlink:href="#BitstreamVeraSans-Roman-6f"/>
      <use x="494.677734375" xlink:href="#BitstreamVeraSans-Roman-66"/>
      <use x="529.8828125" xlink:href="#BitstreamVeraSans-Roman-20"/>
      <use x="561.669921875" xlink:href="#BitstreamVeraSans-Roman-53"/>
      <use x="625.146484375" xlink:href="#BitstreamVeraSans-Roman-61"/>
      <use x="686.42578125" xlink:href="#BitstreamVeraSans-Roman-6d"/>
      <use x="783.837890625" xlink:href="#BitstreamVeraSans-Roman-70"/>
      <use x="847.314453125" xlink:href="#BitstreamVeraSans-Roman-6c"/>
      <use x="875.09765625" xlink:href="#BitstreamVeraSans-Roman-65"/>
      <use x="936.62109375" xlink:href="#BitstreamVeraSans-Roman-73"/>
     </g>
    </g>
   </g>
   <g id="matplotlib.axis_2">
    <g id="ytick_1">
     <g id="line2d_34">
      <defs>
       <path d="M 0 0 
L 4 0 
" id="m3f48007e94" style="stroke:#000000;stroke-width:0.5;"/>
      </defs>
      <g>
       <use style="stroke:#000000;stroke-width:0.5;" x="81.0" xlink:href="#m3f48007e94" y="409.5"/>
      </g>
     </g>
     <g id="line2d_35">
      <defs>
       <path d="M 0 0 
L -4 0 
" id="m2cdd8b8dd2" style="stroke:#000000;stroke-width:0.5;"/>
      </defs>
      <g>
       <use style="stroke:#000000;stroke-width:0.5;" x="583.2" xlink:href="#m2cdd8b8dd2" y="409.5"/>
      </g>
     </g>
     <g id="text_8">
      <!-- 0.0 -->
      <defs>
       <path d="M 10.6875 12.40625 
L 21 12.40625 
L 21 0 
L 10.6875 0 
z
" id="BitstreamVeraSans-Roman-2e"/>
      </defs>
      <g transform="translate(61.096875 412.259375)scale(0.1 -0.1)">
       <use xlink:href="#BitstreamVeraSans-Roman-30"/>
       <use x="63.623046875" xlink:href="#BitstreamVeraSans-Roman-2e"/>
       <use x="95.41015625" xlink:href="#BitstreamVeraSans-Roman-30"/>
      </g>
     </g>
    </g>
    <g id="ytick_2">
     <g id="line2d_36">
      <g>
       <use style="stroke:#000000;stroke-width:0.5;" x="81.0" xlink:href="#m3f48007e94" y="336.96"/>
      </g>
     </g>
     <g id="line2d_37">
      <g>
       <use style="stroke:#000000;stroke-width:0.5;" x="583.2" xlink:href="#m2cdd8b8dd2" y="336.96"/>
      </g>
     </g>
     <g id="text_9">
      <!-- 0.2 -->
      <g transform="translate(61.096875 339.719375)scale(0.1 -0.1)">
       <use xlink:href="#BitstreamVeraSans-Roman-30"/>
       <use x="63.623046875" xlink:href="#BitstreamVeraSans-Roman-2e"/>
       <use x="95.41015625" xlink:href="#BitstreamVeraSans-Roman-32"/>
      </g>
     </g>
    </g>
    <g id="ytick_3">
     <g id="line2d_38">
      <g>
       <use style="stroke:#000000;stroke-width:0.5;" x="81.0" xlink:href="#m3f48007e94" y="264.42"/>
      </g>
     </g>
     <g id="line2d_39">
      <g>
       <use style="stroke:#000000;stroke-width:0.5;" x="583.2" xlink:href="#m2cdd8b8dd2" y="264.42"/>
      </g>
     </g>
     <g id="text_10">
      <!-- 0.4 -->
      <g transform="translate(61.096875 267.179375)scale(0.1 -0.1)">
       <use xlink:href="#BitstreamVeraSans-Roman-30"/>
       <use x="63.623046875" xlink:href="#BitstreamVeraSans-Roman-2e"/>
       <use x="95.41015625" xlink:href="#BitstreamVeraSans-Roman-34"/>
      </g>
     </g>
    </g>
    <g id="ytick_4">
     <g id="line2d_40">
      <g>
       <use style="stroke:#000000;stroke-width:0.5;" x="81.0" xlink:href="#m3f48007e94" y="191.88"/>
      </g>
     </g>
     <g id="line2d_41">
      <g>
       <use style="stroke:#000000;stroke-width:0.5;" x="583.2" xlink:href="#m2cdd8b8dd2" y="191.88"/>
      </g>
     </g>
     <g id="text_11">
      <!-- 0.6 -->
      <g transform="translate(61.096875 194.639375)scale(0.1 -0.1)">
       <use xlink:href="#BitstreamVeraSans-Roman-30"/>
       <use x="63.623046875" xlink:href="#BitstreamVeraSans-Roman-2e"/>
       <use x="95.41015625" xlink:href="#BitstreamVeraSans-Roman-36"/>
      </g>
     </g>
    </g>
    <g id="ytick_5">
     <g id="line2d_42">
      <g>
       <use style="stroke:#000000;stroke-width:0.5;" x="81.0" xlink:href="#m3f48007e94" y="119.34"/>
      </g>
     </g>
     <g id="line2d_43">
      <g>
       <use style="stroke:#000000;stroke-width:0.5;" x="583.2" xlink:href="#m2cdd8b8dd2" y="119.34"/>
      </g>
     </g>
     <g id="text_12">
      <!-- 0.8 -->
      <g transform="translate(61.096875 122.099375)scale(0.1 -0.1)">
       <use xlink:href="#BitstreamVeraSans-Roman-30"/>
       <use x="63.623046875" xlink:href="#BitstreamVeraSans-Roman-2e"/>
       <use x="95.41015625" xlink:href="#BitstreamVeraSans-Roman-38"/>
      </g>
     </g>
    </g>
    <g id="ytick_6">
     <g id="line2d_44">
      <g>
       <use style="stroke:#000000;stroke-width:0.5;" x="81.0" xlink:href="#m3f48007e94" y="46.8"/>
      </g>
     </g>
     <g id="line2d_45">
      <g>
       <use style="stroke:#000000;stroke-width:0.5;" x="583.2" xlink:href="#m2cdd8b8dd2" y="46.8"/>
      </g>
     </g>
     <g id="text_13">
      <!-- 1.0 -->
      <g transform="translate(61.096875 49.559375)scale(0.1 -0.1)">
       <use xlink:href="#BitstreamVeraSans-Roman-31"/>
       <use x="63.623046875" xlink:href="#BitstreamVeraSans-Roman-2e"/>
       <use x="95.41015625" xlink:href="#BitstreamVeraSans-Roman-30"/>
      </g>
     </g>
    </g>
    <g id="text_14">
     <!-- Estimated Completeness -->
     <defs>
      <path d="M 54.890625 33.015625 
L 54.890625 0 
L 45.90625 0 
L 45.90625 32.71875 
Q 45.90625 40.484375 42.875 44.328125 
Q 39.84375 48.1875 33.796875 48.1875 
Q 26.515625 48.1875 22.3125 43.546875 
Q 18.109375 38.921875 18.109375 30.90625 
L 18.109375 0 
L 9.078125 0 
L 9.078125 54.6875 
L 18.109375 54.6875 
L 18.109375 46.1875 
Q 21.34375 51.125 25.703125 53.5625 
Q 30.078125 56 35.796875 56 
Q 45.21875 56 50.046875 50.171875 
Q 54.890625 44.34375 54.890625 33.015625 
" id="BitstreamVeraSans-Roman-6e"/>
      <path d="M 64.40625 67.28125 
L 64.40625 56.890625 
Q 59.421875 61.53125 53.78125 63.8125 
Q 48.140625 66.109375 41.796875 66.109375 
Q 29.296875 66.109375 22.65625 58.46875 
Q 16.015625 50.828125 16.015625 36.375 
Q 16.015625 21.96875 22.65625 14.328125 
Q 29.296875 6.6875 41.796875 6.6875 
Q 48.140625 6.6875 53.78125 8.984375 
Q 59.421875 11.28125 64.40625 15.921875 
L 64.40625 5.609375 
Q 59.234375 2.09375 53.4375 0.328125 
Q 47.65625 -1.421875 41.21875 -1.421875 
Q 24.65625 -1.421875 15.125 8.703125 
Q 5.609375 18.84375 5.609375 36.375 
Q 5.609375 53.953125 15.125 64.078125 
Q 24.65625 74.21875 41.21875 74.21875 
Q 47.75 74.21875 53.53125 72.484375 
Q 59.328125 70.75 64.40625 67.28125 
" id="BitstreamVeraSans-Roman-43"/>
      <path d="M 9.8125 72.90625 
L 55.90625 72.90625 
L 55.90625 64.59375 
L 19.671875 64.59375 
L 19.671875 43.015625 
L 54.390625 43.015625 
L 54.390625 34.71875 
L 19.671875 34.71875 
L 19.671875 8.296875 
L 56.78125 8.296875 
L 56.78125 0 
L 9.8125 0 
z
" id="BitstreamVeraSans-Roman-45"/>
      <path d="M 9.421875 54.6875 
L 18.40625 54.6875 
L 18.40625 0 
L 9.421875 0 
z
M 9.421875 75.984375 
L 18.40625 75.984375 
L 18.40625 64.59375 
L 9.421875 64.59375 
z
" id="BitstreamVeraSans-Roman-69"/>
      <path d="M 45.40625 46.390625 
L 45.40625 75.984375 
L 54.390625 75.984375 
L 54.390625 0 
L 45.40625 0 
L 45.40625 8.203125 
Q 42.578125 3.328125 38.25 0.953125 
Q 33.9375 -1.421875 27.875 -1.421875 
Q 17.96875 -1.421875 11.734375 6.484375 
Q 5.515625 14.40625 5.515625 27.296875 
Q 5.515625 40.1875 11.734375 48.09375 
Q 17.96875 56 27.875 56 
Q 33.9375 56 38.25 53.625 
Q 42.578125 51.265625 45.40625 46.390625 
M 14.796875 27.296875 
Q 14.796875 17.390625 18.875 11.75 
Q 22.953125 6.109375 30.078125 6.109375 
Q 37.203125 6.109375 41.296875 11.75 
Q 45.40625 17.390625 45.40625 27.296875 
Q 45.40625 37.203125 41.296875 42.84375 
Q 37.203125 48.484375 30.078125 48.484375 
Q 22.953125 48.484375 18.875 42.84375 
Q 14.796875 37.203125 14.796875 27.296875 
" id="BitstreamVeraSans-Roman-64"/>
      <path d="M 18.3125 70.21875 
L 18.3125 54.6875 
L 36.8125 54.6875 
L 36.8125 47.703125 
L 18.3125 47.703125 
L 18.3125 18.015625 
Q 18.3125 11.328125 20.140625 9.421875 
Q 21.96875 7.515625 27.59375 7.515625 
L 36.8125 7.515625 
L 36.8125 0 
L 27.59375 0 
Q 17.1875 0 13.234375 3.875 
Q 9.28125 7.765625 9.28125 18.015625 
L 9.28125 47.703125 
L 2.6875 47.703125 
L 2.6875 54.6875 
L 9.28125 54.6875 
L 9.28125 70.21875 
z
" id="BitstreamVeraSans-Roman-74"/>
     </defs>
     <g transform="translate(54.0171875 290.55)rotate(-90.0)scale(0.1 -0.1)">
      <use xlink:href="#BitstreamVeraSans-Roman-45"/>
      <use x="63.18359375" xlink:href="#BitstreamVeraSans-Roman-73"/>
      <use x="115.283203125" xlink:href="#BitstreamVeraSans-Roman-74"/>
      <use x="154.4921875" xlink:href="#BitstreamVeraSans-Roman-69"/>
      <use x="182.275390625" xlink:href="#BitstreamVeraSans-Roman-6d"/>
      <use x="279.6875" xlink:href="#BitstreamVeraSans-Roman-61"/>
      <use x="340.966796875" xlink:href="#BitstreamVeraSans-Roman-74"/>
      <use x="380.17578125" xlink:href="#BitstreamVeraSans-Roman-65"/>
      <use x="441.69921875" xlink:href="#BitstreamVeraSans-Roman-64"/>
      <use x="505.17578125" xlink:href="#BitstreamVeraSans-Roman-20"/>
      <use x="536.962890625" xlink:href="#BitstreamVeraSans-Roman-43"/>
      <use x="606.787109375" xlink:href="#BitstreamVeraSans-Roman-6f"/>
      <use x="667.96875" xlink:href="#BitstreamVeraSans-Roman-6d"/>
      <use x="765.380859375" xlink:href="#BitstreamVeraSans-Roman-70"/>
      <use x="828.857421875" xlink:href="#BitstreamVeraSans-Roman-6c"/>
      <use x="856.640625" xlink:href="#BitstreamVeraSans-Roman-65"/>
      <use x="918.1640625" xlink:href="#BitstreamVeraSans-Roman-74"/>
      <use x="957.373046875" xlink:href="#BitstreamVeraSans-Roman-65"/>
      <use x="1018.89648438" xlink:href="#BitstreamVeraSans-Roman-6e"/>
      <use x="1082.27539062" xlink:href="#BitstreamVeraSans-Roman-65"/>
      <use x="1143.79882812" xlink:href="#BitstreamVeraSans-Roman-73"/>
      <use x="1195.8984375" xlink:href="#BitstreamVeraSans-Roman-73"/>
     </g>
    </g>
   </g>
   <g id="text_15">
    <!-- Mean Estimated Completeness by CheckM -->
    <defs>
     <path d="M 9.078125 75.984375 
L 18.109375 75.984375 
L 18.109375 31.109375 
L 44.921875 54.6875 
L 56.390625 54.6875 
L 27.390625 29.109375 
L 57.625 0 
L 45.90625 0 
L 18.109375 26.703125 
L 18.109375 0 
L 9.078125 0 
z
" id="BitstreamVeraSans-Roman-6b"/>
     <path d="M 9.8125 72.90625 
L 24.515625 72.90625 
L 43.109375 23.296875 
L 61.8125 72.90625 
L 76.515625 72.90625 
L 76.515625 0 
L 66.890625 0 
L 66.890625 64.015625 
L 48.09375 14.015625 
L 38.1875 14.015625 
L 19.390625 64.015625 
L 19.390625 0 
L 9.8125 0 
z
" id="BitstreamVeraSans-Roman-4d"/>
     <path d="M 54.890625 33.015625 
L 54.890625 0 
L 45.90625 0 
L 45.90625 32.71875 
Q 45.90625 40.484375 42.875 44.328125 
Q 39.84375 48.1875 33.796875 48.1875 
Q 26.515625 48.1875 22.3125 43.546875 
Q 18.109375 38.921875 18.109375 30.90625 
L 18.109375 0 
L 9.078125 0 
L 9.078125 75.984375 
L 18.109375 75.984375 
L 18.109375 46.1875 
Q 21.34375 51.125 25.703125 53.5625 
Q 30.078125 56 35.796875 56 
Q 45.21875 56 50.046875 50.171875 
Q 54.890625 44.34375 54.890625 33.015625 
" id="BitstreamVeraSans-Roman-68"/>
     <path d="M 48.78125 52.59375 
L 48.78125 44.1875 
Q 44.96875 46.296875 41.140625 47.34375 
Q 37.3125 48.390625 33.40625 48.390625 
Q 24.65625 48.390625 19.8125 42.84375 
Q 14.984375 37.3125 14.984375 27.296875 
Q 14.984375 17.28125 19.8125 11.734375 
Q 24.65625 6.203125 33.40625 6.203125 
Q 37.3125 6.203125 41.140625 7.25 
Q 44.96875 8.296875 48.78125 10.40625 
L 48.78125 2.09375 
Q 45.015625 0.34375 40.984375 -0.53125 
Q 36.96875 -1.421875 32.421875 -1.421875 
Q 20.0625 -1.421875 12.78125 6.34375 
Q 5.515625 14.109375 5.515625 27.296875 
Q 5.515625 40.671875 12.859375 48.328125 
Q 20.21875 56 33.015625 56 
Q 37.15625 56 41.109375 55.140625 
Q 45.0625 54.296875 48.78125 52.59375 
" id="BitstreamVeraSans-Roman-63"/>
     <path d="M 32.171875 -5.078125 
Q 28.375 -14.84375 24.75 -17.8125 
Q 21.140625 -20.796875 15.09375 -20.796875 
L 7.90625 -20.796875 
L 7.90625 -13.28125 
L 13.1875 -13.28125 
Q 16.890625 -13.28125 18.9375 -11.515625 
Q 21 -9.765625 23.484375 -3.21875 
L 25.09375 0.875 
L 2.984375 54.6875 
L 12.5 54.6875 
L 29.59375 11.921875 
L 46.6875 54.6875 
L 56.203125 54.6875 
z
" id="BitstreamVeraSans-Roman-79"/>
    </defs>
    <g transform="translate(204.1565625 41.8)scale(0.12 -0.12)">
     <use xlink:href="#BitstreamVeraSans-Roman-4d"/>
     <use x="86.279296875" xlink:href="#BitstreamVeraSans-Roman-65"/>
     <use x="147.802734375" xlink:href="#BitstreamVeraSans-Roman-61"/>
     <use x="209.08203125" xlink:href="#BitstreamVeraSans-Roman-6e"/>
     <use x="272.4609375" xlink:href="#BitstreamVeraSans-Roman-20"/>
     <use x="304.248046875" xlink:href="#BitstreamVeraSans-Roman-45"/>
     <use x="367.431640625" xlink:href="#BitstreamVeraSans-Roman-73"/>
     <use x="419.53125" xlink:href="#BitstreamVeraSans-Roman-74"/>
     <use x="458.740234375" xlink:href="#BitstreamVeraSans-Roman-69"/>
     <use x="486.5234375" xlink:href="#BitstreamVeraSans-Roman-6d"/>
     <use x="583.935546875" xlink:href="#BitstreamVeraSans-Roman-61"/>
     <use x="645.21484375" xlink:href="#BitstreamVeraSans-Roman-74"/>
     <use x="684.423828125" xlink:href="#BitstreamVeraSans-Roman-65"/>
     <use x="745.947265625" xlink:href="#BitstreamVeraSans-Roman-64"/>
     <use x="809.423828125" xlink:href="#BitstreamVeraSans-Roman-20"/>
     <use x="841.2109375" xlink:href="#BitstreamVeraSans-Roman-43"/>
     <use x="911.03515625" xlink:href="#BitstreamVeraSans-Roman-6f"/>
     <use x="972.216796875" xlink:href="#BitstreamVeraSans-Roman-6d"/>
     <use x="1069.62890625" xlink:href="#BitstreamVeraSans-Roman-70"/>
     <use x="1133.10546875" xlink:href="#BitstreamVeraSans-Roman-6c"/>
     <use x="1160.88867188" xlink:href="#BitstreamVeraSans-Roman-65"/>
     <use x="1222.41210938" xlink:href="#BitstreamVeraSans-Roman-74"/>
     <use x="1261.62109375" xlink:href="#BitstreamVeraSans-Roman-65"/>
     <use x="1323.14453125" xlink:href="#BitstreamVeraSans-Roman-6e"/>
     <use x="1386.5234375" xlink:href="#BitstreamVeraSans-Roman-65"/>
     <use x="1448.046875" xlink:href="#BitstreamVeraSans-Roman-73"/>
     <use x="1500.14648438" xlink:href="#BitstreamVeraSans-Roman-73"/>
     <use x="1552.24609375" xlink:href="#BitstreamVeraSans-Roman-20"/>
     <use x="1584.03320312" xlink:href="#BitstreamVeraSans-Roman-62"/>
     <use x="1647.50976562" xlink:href="#BitstreamVeraSans-Roman-79"/>
     <use x="1706.68945312" xlink:href="#BitstreamVeraSans-Roman-20"/>
     <use x="1738.4765625" xlink:href="#BitstreamVeraSans-Roman-43"/>
     <use x="1808.30078125" xlink:href="#BitstreamVeraSans-Roman-68"/>
     <use x="1871.6796875" xlink:href="#BitstreamVeraSans-Roman-65"/>
     <use x="1933.203125" xlink:href="#BitstreamVeraSans-Roman-63"/>
     <use x="1988.18359375" xlink:href="#BitstreamVeraSans-Roman-6b"/>
     <use x="2046.09375" xlink:href="#BitstreamVeraSans-Roman-4d"/>
    </g>
   </g>
   <g id="legend_1">
    <g id="patch_7">
     <path d="M 496.31625 403.5 
L 577.2 403.5 
L 577.2 276.60375 
L 496.31625 276.60375 
z
" style="fill:#ffffff;stroke:#000000;stroke-linejoin:miter;"/>
    </g>
    <g id="LineCollection_8">
     <path d="M 504.71625 292.321875 
L 504.71625 280.321875 
" style="fill:none;stroke:#0000ff;"/>
     <path d="M 521.51625 292.321875 
L 521.51625 280.321875 
" style="fill:none;stroke:#0000ff;"/>
    </g>
    <g id="line2d_46">
     <g>
      <use style="fill:#0000ff;stroke:#0000ff;stroke-width:0.5;" x="504.71625" xlink:href="#mf3faed6ceb" y="292.321875"/>
      <use style="fill:#0000ff;stroke:#0000ff;stroke-width:0.5;" x="521.51625" xlink:href="#mf3faed6ceb" y="292.321875"/>
     </g>
    </g>
    <g id="line2d_47">
     <g>
      <use style="fill:#0000ff;stroke:#0000ff;stroke-width:0.5;" x="504.71625" xlink:href="#mf3faed6ceb" y="280.321875"/>
      <use style="fill:#0000ff;stroke:#0000ff;stroke-width:0.5;" x="521.51625" xlink:href="#mf3faed6ceb" y="280.321875"/>
     </g>
    </g>
    <g id="line2d_48">
     <path d="M 504.71625 286.321875 
L 521.51625 286.321875 
" style="fill:none;stroke:#0000ff;stroke-linecap:square;"/>
    </g>
    <g id="line2d_49"/>
    <g id="text_16">
     <!-- acI-A1 -->
     <defs>
      <path d="M 34.1875 63.1875 
L 20.796875 26.90625 
L 47.609375 26.90625 
z
M 28.609375 72.90625 
L 39.796875 72.90625 
L 67.578125 0 
L 57.328125 0 
L 50.6875 18.703125 
L 17.828125 18.703125 
L 11.1875 0 
L 0.78125 0 
z
" id="BitstreamVeraSans-Roman-41"/>
      <path d="M 4.890625 31.390625 
L 31.203125 31.390625 
L 31.203125 23.390625 
L 4.890625 23.390625 
z
" id="BitstreamVeraSans-Roman-2d"/>
      <path d="M 9.8125 72.90625 
L 19.671875 72.90625 
L 19.671875 0 
L 9.8125 0 
z
" id="BitstreamVeraSans-Roman-49"/>
     </defs>
     <g transform="translate(534.71625 290.521875)scale(0.12 -0.12)">
      <use xlink:href="#BitstreamVeraSans-Roman-61"/>
      <use x="61.279296875" xlink:href="#BitstreamVeraSans-Roman-63"/>
      <use x="116.259765625" xlink:href="#BitstreamVeraSans-Roman-49"/>
      <use x="145.751953125" xlink:href="#BitstreamVeraSans-Roman-2d"/>
      <use x="181.8046875" xlink:href="#BitstreamVeraSans-Roman-41"/>
      <use x="250.212890625" xlink:href="#BitstreamVeraSans-Roman-31"/>
     </g>
    </g>
    <g id="LineCollection_9">
     <path d="M 504.71625 309.935625 
L 504.71625 297.935625 
" style="fill:none;stroke:#008000;"/>
     <path d="M 521.51625 309.935625 
L 521.51625 297.935625 
" style="fill:none;stroke:#008000;"/>
    </g>
    <g id="line2d_50">
     <g>
      <use style="fill:#008000;stroke:#008000;stroke-width:0.5;" x="504.71625" xlink:href="#m6108d61e3f" y="309.935625"/>
      <use style="fill:#008000;stroke:#008000;stroke-width:0.5;" x="521.51625" xlink:href="#m6108d61e3f" y="309.935625"/>
     </g>
    </g>
    <g id="line2d_51">
     <g>
      <use style="fill:#008000;stroke:#008000;stroke-width:0.5;" x="504.71625" xlink:href="#m6108d61e3f" y="297.935625"/>
      <use style="fill:#008000;stroke:#008000;stroke-width:0.5;" x="521.51625" xlink:href="#m6108d61e3f" y="297.935625"/>
     </g>
    </g>
    <g id="line2d_52">
     <path d="M 504.71625 303.935625 
L 521.51625 303.935625 
" style="fill:none;stroke:#008000;stroke-linecap:square;"/>
    </g>
    <g id="line2d_53"/>
    <g id="text_17">
     <!-- acI-A5 -->
     <defs>
      <path d="M 10.796875 72.90625 
L 49.515625 72.90625 
L 49.515625 64.59375 
L 19.828125 64.59375 
L 19.828125 46.734375 
Q 21.96875 47.46875 24.109375 47.828125 
Q 26.265625 48.1875 28.421875 48.1875 
Q 40.625 48.1875 47.75 41.5 
Q 54.890625 34.8125 54.890625 23.390625 
Q 54.890625 11.625 47.5625 5.09375 
Q 40.234375 -1.421875 26.90625 -1.421875 
Q 22.3125 -1.421875 17.546875 -0.640625 
Q 12.796875 0.140625 7.71875 1.703125 
L 7.71875 11.625 
Q 12.109375 9.234375 16.796875 8.0625 
Q 21.484375 6.890625 26.703125 6.890625 
Q 35.15625 6.890625 40.078125 11.328125 
Q 45.015625 15.765625 45.015625 23.390625 
Q 45.015625 31 40.078125 35.4375 
Q 35.15625 39.890625 26.703125 39.890625 
Q 22.75 39.890625 18.8125 39.015625 
Q 14.890625 38.140625 10.796875 36.28125 
z
" id="BitstreamVeraSans-Roman-35"/>
     </defs>
     <g transform="translate(534.71625 308.135625)scale(0.12 -0.12)">
      <use xlink:href="#BitstreamVeraSans-Roman-61"/>
      <use x="61.279296875" xlink:href="#BitstreamVeraSans-Roman-63"/>
      <use x="116.259765625" xlink:href="#BitstreamVeraSans-Roman-49"/>
      <use x="145.751953125" xlink:href="#BitstreamVeraSans-Roman-2d"/>
      <use x="181.8046875" xlink:href="#BitstreamVeraSans-Roman-41"/>
      <use x="250.212890625" xlink:href="#BitstreamVeraSans-Roman-35"/>
     </g>
    </g>
    <g id="LineCollection_10">
     <path d="M 504.71625 327.549375 
L 504.71625 315.549375 
" style="fill:none;stroke:#ff0000;"/>
     <path d="M 521.51625 327.549375 
L 521.51625 315.549375 
" style="fill:none;stroke:#ff0000;"/>
    </g>
    <g id="line2d_54">
     <g>
      <use style="fill:#ff0000;stroke:#ff0000;stroke-width:0.5;" x="504.71625" xlink:href="#mea23cad60c" y="327.549375"/>
      <use style="fill:#ff0000;stroke:#ff0000;stroke-width:0.5;" x="521.51625" xlink:href="#mea23cad60c" y="327.549375"/>
     </g>
    </g>
    <g id="line2d_55">
     <g>
      <use style="fill:#ff0000;stroke:#ff0000;stroke-width:0.5;" x="504.71625" xlink:href="#mea23cad60c" y="315.549375"/>
      <use style="fill:#ff0000;stroke:#ff0000;stroke-width:0.5;" x="521.51625" xlink:href="#mea23cad60c" y="315.549375"/>
     </g>
    </g>
    <g id="line2d_56">
     <path d="M 504.71625 321.549375 
L 521.51625 321.549375 
" style="fill:none;stroke:#ff0000;stroke-linecap:square;"/>
    </g>
    <g id="line2d_57"/>
    <g id="text_18">
     <!-- acI-A6 -->
     <g transform="translate(534.71625 325.749375)scale(0.12 -0.12)">
      <use xlink:href="#BitstreamVeraSans-Roman-61"/>
      <use x="61.279296875" xlink:href="#BitstreamVeraSans-Roman-63"/>
      <use x="116.259765625" xlink:href="#BitstreamVeraSans-Roman-49"/>
      <use x="145.751953125" xlink:href="#BitstreamVeraSans-Roman-2d"/>
      <use x="181.8046875" xlink:href="#BitstreamVeraSans-Roman-41"/>
      <use x="250.212890625" xlink:href="#BitstreamVeraSans-Roman-36"/>
     </g>
    </g>
    <g id="LineCollection_11">
     <path d="M 504.71625 345.163125 
L 504.71625 333.163125 
" style="fill:none;stroke:#00bfbf;"/>
     <path d="M 521.51625 345.163125 
L 521.51625 333.163125 
" style="fill:none;stroke:#00bfbf;"/>
    </g>
    <g id="line2d_58">
     <g>
      <use style="fill:#00bfbf;stroke:#00bfbf;stroke-width:0.5;" x="504.71625" xlink:href="#m29be89ff37" y="345.163125"/>
      <use style="fill:#00bfbf;stroke:#00bfbf;stroke-width:0.5;" x="521.51625" xlink:href="#m29be89ff37" y="345.163125"/>
     </g>
    </g>
    <g id="line2d_59">
     <g>
      <use style="fill:#00bfbf;stroke:#00bfbf;stroke-width:0.5;" x="504.71625" xlink:href="#m29be89ff37" y="333.163125"/>
      <use style="fill:#00bfbf;stroke:#00bfbf;stroke-width:0.5;" x="521.51625" xlink:href="#m29be89ff37" y="333.163125"/>
     </g>
    </g>
    <g id="line2d_60">
     <path d="M 504.71625 339.163125 
L 521.51625 339.163125 
" style="fill:none;stroke:#00bfbf;stroke-linecap:square;"/>
    </g>
    <g id="line2d_61"/>
    <g id="text_19">
     <!-- acI-A7 -->
     <defs>
      <path d="M 8.203125 72.90625 
L 55.078125 72.90625 
L 55.078125 68.703125 
L 28.609375 0 
L 18.3125 0 
L 43.21875 64.59375 
L 8.203125 64.59375 
z
" id="BitstreamVeraSans-Roman-37"/>
     </defs>
     <g transform="translate(534.71625 343.363125)scale(0.12 -0.12)">
      <use xlink:href="#BitstreamVeraSans-Roman-61"/>
      <use x="61.279296875" xlink:href="#BitstreamVeraSans-Roman-63"/>
      <use x="116.259765625" xlink:href="#BitstreamVeraSans-Roman-49"/>
      <use x="145.751953125" xlink:href="#BitstreamVeraSans-Roman-2d"/>
      <use x="181.8046875" xlink:href="#BitstreamVeraSans-Roman-41"/>
      <use x="250.212890625" xlink:href="#BitstreamVeraSans-Roman-37"/>
     </g>
    </g>
    <g id="LineCollection_12">
     <path d="M 504.71625 362.776875 
L 504.71625 350.776875 
" style="fill:none;stroke:#bf00bf;"/>
     <path d="M 521.51625 362.776875 
L 521.51625 350.776875 
" style="fill:none;stroke:#bf00bf;"/>
    </g>
    <g id="line2d_62">
     <g>
      <use style="fill:#bf00bf;stroke:#bf00bf;stroke-width:0.5;" x="504.71625" xlink:href="#m53e81e4969" y="362.776875"/>
      <use style="fill:#bf00bf;stroke:#bf00bf;stroke-width:0.5;" x="521.51625" xlink:href="#m53e81e4969" y="362.776875"/>
     </g>
    </g>
    <g id="line2d_63">
     <g>
      <use style="fill:#bf00bf;stroke:#bf00bf;stroke-width:0.5;" x="504.71625" xlink:href="#m53e81e4969" y="350.776875"/>
      <use style="fill:#bf00bf;stroke:#bf00bf;stroke-width:0.5;" x="521.51625" xlink:href="#m53e81e4969" y="350.776875"/>
     </g>
    </g>
    <g id="line2d_64">
     <path d="M 504.71625 356.776875 
L 521.51625 356.776875 
" style="fill:none;stroke:#bf00bf;stroke-linecap:square;"/>
    </g>
    <g id="line2d_65"/>
    <g id="text_20">
     <!-- acI-B1 -->
     <defs>
      <path d="M 19.671875 34.8125 
L 19.671875 8.109375 
L 35.5 8.109375 
Q 43.453125 8.109375 47.28125 11.40625 
Q 51.125 14.703125 51.125 21.484375 
Q 51.125 28.328125 47.28125 31.5625 
Q 43.453125 34.8125 35.5 34.8125 
z
M 19.671875 64.796875 
L 19.671875 42.828125 
L 34.28125 42.828125 
Q 41.5 42.828125 45.03125 45.53125 
Q 48.578125 48.25 48.578125 53.8125 
Q 48.578125 59.328125 45.03125 62.0625 
Q 41.5 64.796875 34.28125 64.796875 
z
M 9.8125 72.90625 
L 35.015625 72.90625 
Q 46.296875 72.90625 52.390625 68.21875 
Q 58.5 63.53125 58.5 54.890625 
Q 58.5 48.1875 55.375 44.234375 
Q 52.25 40.28125 46.1875 39.3125 
Q 53.46875 37.75 57.5 32.78125 
Q 61.53125 27.828125 61.53125 20.40625 
Q 61.53125 10.640625 54.890625 5.3125 
Q 48.25 0 35.984375 0 
L 9.8125 0 
z
" id="BitstreamVeraSans-Roman-42"/>
     </defs>
     <g transform="translate(534.71625 360.976875)scale(0.12 -0.12)">
      <use xlink:href="#BitstreamVeraSans-Roman-61"/>
      <use x="61.279296875" xlink:href="#BitstreamVeraSans-Roman-63"/>
      <use x="116.259765625" xlink:href="#BitstreamVeraSans-Roman-49"/>
      <use x="145.751953125" xlink:href="#BitstreamVeraSans-Roman-2d"/>
      <use x="181.7890625" xlink:href="#BitstreamVeraSans-Roman-42"/>
      <use x="250.392578125" xlink:href="#BitstreamVeraSans-Roman-31"/>
     </g>
    </g>
    <g id="LineCollection_13">
     <path d="M 504.71625 380.390625 
L 504.71625 368.390625 
" style="fill:none;stroke:#bfbf00;"/>
     <path d="M 521.51625 380.390625 
L 521.51625 368.390625 
" style="fill:none;stroke:#bfbf00;"/>
    </g>
    <g id="line2d_66">
     <g>
      <use style="fill:#bfbf00;stroke:#bfbf00;stroke-width:0.5;" x="504.71625" xlink:href="#mcc233870f7" y="380.390625"/>
      <use style="fill:#bfbf00;stroke:#bfbf00;stroke-width:0.5;" x="521.51625" xlink:href="#mcc233870f7" y="380.390625"/>
     </g>
    </g>
    <g id="line2d_67">
     <g>
      <use style="fill:#bfbf00;stroke:#bfbf00;stroke-width:0.5;" x="504.71625" xlink:href="#mcc233870f7" y="368.390625"/>
      <use style="fill:#bfbf00;stroke:#bfbf00;stroke-width:0.5;" x="521.51625" xlink:href="#mcc233870f7" y="368.390625"/>
     </g>
    </g>
    <g id="line2d_68">
     <path d="M 504.71625 374.390625 
L 521.51625 374.390625 
" style="fill:none;stroke:#bfbf00;stroke-linecap:square;"/>
    </g>
    <g id="line2d_69"/>
    <g id="text_21">
     <!-- acI-B2 -->
     <g transform="translate(534.71625 378.590625)scale(0.12 -0.12)">
      <use xlink:href="#BitstreamVeraSans-Roman-61"/>
      <use x="61.279296875" xlink:href="#BitstreamVeraSans-Roman-63"/>
      <use x="116.259765625" xlink:href="#BitstreamVeraSans-Roman-49"/>
      <use x="145.751953125" xlink:href="#BitstreamVeraSans-Roman-2d"/>
      <use x="181.7890625" xlink:href="#BitstreamVeraSans-Roman-42"/>
      <use x="250.392578125" xlink:href="#BitstreamVeraSans-Roman-32"/>
     </g>
    </g>
    <g id="LineCollection_14">
     <path d="M 504.71625 398.004375 
L 504.71625 386.004375 
" style="fill:none;stroke:#000000;"/>
     <path d="M 521.51625 398.004375 
L 521.51625 386.004375 
" style="fill:none;stroke:#000000;"/>
    </g>
    <g id="line2d_70">
     <g>
      <use style="stroke:#000000;stroke-width:0.5;" x="504.71625" xlink:href="#m62b1f4488e" y="398.004375"/>
      <use style="stroke:#000000;stroke-width:0.5;" x="521.51625" xlink:href="#m62b1f4488e" y="398.004375"/>
     </g>
    </g>
    <g id="line2d_71">
     <g>
      <use style="stroke:#000000;stroke-width:0.5;" x="504.71625" xlink:href="#m62b1f4488e" y="386.004375"/>
      <use style="stroke:#000000;stroke-width:0.5;" x="521.51625" xlink:href="#m62b1f4488e" y="386.004375"/>
     </g>
    </g>
    <g id="line2d_72">
     <path d="M 504.71625 392.004375 
L 521.51625 392.004375 
" style="fill:none;stroke:#000000;stroke-linecap:square;"/>
    </g>
    <g id="line2d_73"/>
    <g id="text_22">
     <!-- acI-B4 -->
     <g transform="translate(534.71625 396.204375)scale(0.12 -0.12)">
      <use xlink:href="#BitstreamVeraSans-Roman-61"/>
      <use x="61.279296875" xlink:href="#BitstreamVeraSans-Roman-63"/>
      <use x="116.259765625" xlink:href="#BitstreamVeraSans-Roman-49"/>
      <use x="145.751953125" xlink:href="#BitstreamVeraSans-Roman-2d"/>
      <use x="181.7890625" xlink:href="#BitstreamVeraSans-Roman-42"/>
      <use x="250.392578125" xlink:href="#BitstreamVeraSans-Roman-34"/>
     </g>
    </g>
   </g>
  </g>
 </g>
 <defs>
  <clipPath id="p9f601161e9">
   <rect height="362.7" width="502.2" x="81.0" y="46.8"/>
  </clipPath>
 </defs>
</svg>
